<svg xmlns="http://www.w3.org/2000/svg" xmlns:xlink="http://www.w3.org/1999/xlink" width="90" zoomAndPan="magnify" viewBox="0 0 67.5 67.499996" height="90" preserveAspectRatio="xMidYMid meet" version="1.0"><defs><g/><clipPath id="93088dffc1"><path d="M 12.484375 5 L 24 5 L 24 43 L 12.484375 43 Z M 12.484375 5 " clip-rule="nonzero"/></clipPath><clipPath id="692ce4c1f0"><path d="M 44 5 L 55.234375 5 L 55.234375 43 L 44 43 Z M 44 5 " clip-rule="nonzero"/></clipPath><clipPath id="56fb920a8a"><path d="M 34 4.332031 L 44 4.332031 L 44 14 L 34 14 Z M 34 4.332031 " clip-rule="nonzero"/></clipPath><clipPath id="5bdfbeb390"><path d="M 24 35 L 34 35 L 34 44.082031 L 24 44.082031 Z M 24 35 " clip-rule="nonzero"/></clipPath></defs><g clip-path="url(#93088dffc1)"><path fill="#151f28" d="M 20.738281 19.417969 L 20.738281 11.386719 C 20.738281 10.289062 21.203125 9.695312 22.429688 9.695312 L 23.675781 9.695312 L 23.675781 5.890625 L 21.160156 5.890625 C 19 5.890625 16.078125 7.203125 16.078125 10.964844 L 16.078125 18.570312 C 16.078125 20.683594 14.386719 21.949219 12.691406 21.949219 C 12.613281 21.949219 12.542969 21.96875 12.484375 22 L 12.484375 26.128906 C 12.542969 26.160156 12.613281 26.179688 12.691406 26.179688 C 14.386719 26.179688 16.078125 27.449219 16.078125 29.558594 L 16.078125 37.167969 C 16.078125 40.929688 19 42.238281 21.160156 42.238281 L 23.675781 42.238281 L 23.675781 38.4375 L 22.429688 38.4375 C 21.203125 38.4375 20.734375 37.84375 20.734375 36.746094 L 20.734375 28.714844 C 20.734375 25.757812 18.621094 24.488281 18.621094 24.488281 L 16.503906 24.066406 L 18.621094 23.644531 C 18.621094 23.640625 20.738281 22.375 20.738281 19.417969 Z M 20.738281 19.417969 " fill-opacity="1" fill-rule="nonzero"/></g><g clip-path="url(#692ce4c1f0)"><path fill="#151f28" d="M 46.980469 19.417969 L 46.980469 11.386719 C 46.980469 10.289062 46.511719 9.695312 45.285156 9.695312 L 44.039062 9.695312 L 44.039062 5.890625 L 46.558594 5.890625 C 48.714844 5.890625 51.636719 7.203125 51.636719 10.964844 L 51.636719 18.570312 C 51.636719 20.683594 53.332031 21.949219 55.023438 21.949219 C 55.101562 21.949219 55.171875 21.96875 55.234375 22 L 55.234375 26.128906 C 55.171875 26.160156 55.101562 26.179688 55.023438 26.179688 C 53.328125 26.179688 51.636719 27.449219 51.636719 29.558594 L 51.636719 37.167969 C 51.636719 40.929688 48.714844 42.238281 46.558594 42.238281 L 44.042969 42.238281 L 44.042969 38.4375 L 45.289062 38.4375 C 46.515625 38.4375 46.980469 37.84375 46.980469 36.746094 L 46.980469 28.714844 C 46.980469 25.757812 49.097656 24.488281 49.097656 24.488281 L 51.214844 24.066406 L 49.097656 23.644531 C 49.097656 23.640625 46.980469 22.375 46.980469 19.417969 Z M 46.980469 19.417969 " fill-opacity="1" fill-rule="nonzero"/></g><path fill="#f15a29" d="M 44.878906 25.082031 C 44.910156 24.746094 44.921875 24.40625 44.921875 24.066406 C 44.921875 23.722656 44.90625 23.382812 44.878906 23.046875 L 43.09375 22.914062 C 43.035156 22.457031 42.945312 22.007812 42.824219 21.570312 L 44.425781 20.765625 C 44.222656 20.113281 43.957031 19.484375 43.644531 18.886719 L 41.945312 19.449219 C 41.71875 19.050781 41.460938 18.667969 41.179688 18.308594 L 42.347656 16.957031 C 41.914062 16.433594 41.429688 15.949219 40.90625 15.515625 L 39.550781 16.683594 C 39.1875 16.402344 38.808594 16.148438 38.410156 15.921875 L 38.96875 14.222656 C 38.375 13.910156 37.742188 13.644531 37.085938 13.441406 L 36.28125 15.039062 C 35.84375 14.917969 35.394531 14.828125 34.9375 14.773438 L 34.804688 12.992188 C 34.46875 12.960938 34.128906 12.945312 33.785156 12.945312 C 33.441406 12.945312 33.101562 12.960938 32.765625 12.992188 L 32.632812 14.773438 C 32.171875 14.828125 31.722656 14.917969 31.285156 15.039062 L 30.480469 13.441406 C 29.824219 13.644531 29.195312 13.910156 28.597656 14.222656 L 29.160156 15.921875 C 28.757812 16.148438 28.378906 16.402344 28.019531 16.683594 L 26.664062 15.515625 C 26.140625 15.949219 25.65625 16.433594 25.222656 16.957031 L 26.390625 18.308594 C 26.109375 18.667969 25.855469 19.050781 25.625 19.449219 L 23.925781 18.886719 C 23.613281 19.484375 23.347656 20.113281 23.144531 20.765625 L 24.746094 21.570312 C 24.625 22.007812 24.535156 22.457031 24.480469 22.914062 L 22.695312 23.046875 C 22.664062 23.382812 22.648438 23.722656 22.648438 24.066406 C 22.648438 24.410156 22.664062 24.746094 22.695312 25.082031 L 24.480469 25.214844 C 24.535156 25.671875 24.625 26.121094 24.746094 26.558594 L 23.144531 27.363281 C 23.347656 28.015625 23.613281 28.644531 23.925781 29.242188 L 25.625 28.683594 C 25.851562 29.082031 26.109375 29.460938 26.390625 29.820312 L 25.222656 31.175781 C 25.65625 31.695312 26.140625 32.179688 26.664062 32.613281 L 28.019531 31.449219 C 28.378906 31.730469 28.761719 31.984375 29.160156 32.210938 L 28.597656 33.90625 C 29.195312 34.222656 29.828125 34.484375 30.480469 34.6875 L 31.285156 33.089844 C 31.722656 33.210938 32.171875 33.300781 32.632812 33.355469 L 32.765625 35.136719 C 33.101562 35.167969 33.441406 35.183594 33.785156 35.183594 C 34.128906 35.183594 34.46875 35.167969 34.804688 35.136719 L 34.9375 33.355469 C 35.394531 33.300781 35.84375 33.210938 36.28125 33.089844 L 37.085938 34.6875 C 37.742188 34.484375 38.375 34.222656 38.96875 33.90625 L 38.410156 32.210938 C 38.808594 31.984375 39.191406 31.726562 39.550781 31.449219 L 40.90625 32.613281 C 41.429688 32.179688 41.914062 31.699219 42.347656 31.175781 L 41.179688 29.820312 C 41.460938 29.460938 41.714844 29.082031 41.945312 28.683594 L 43.644531 29.242188 C 43.957031 28.644531 44.222656 28.015625 44.425781 27.363281 L 42.824219 26.558594 C 42.945312 26.121094 43.035156 25.671875 43.09375 25.214844 Z M 34.527344 17.027344 C 34.527344 16.699219 34.792969 16.484375 35.117188 16.550781 C 35.117188 16.550781 36.632812 16.859375 37.613281 17.421875 C 38.589844 17.984375 39.617188 19.140625 39.617188 19.140625 C 39.835938 19.390625 39.78125 19.726562 39.496094 19.890625 L 38.4375 20.496094 C 38.152344 20.664062 37.734375 20.601562 37.503906 20.363281 C 37.503906 20.363281 37.007812 19.84375 36.410156 19.5 C 35.8125 19.152344 35.109375 18.984375 35.109375 18.984375 C 34.789062 18.90625 34.527344 18.574219 34.527344 18.246094 Z M 27.878906 19.140625 C 27.878906 19.140625 28.90625 17.984375 29.882812 17.421875 C 30.863281 16.859375 32.378906 16.550781 32.378906 16.550781 C 32.703125 16.484375 32.96875 16.699219 32.96875 17.027344 L 32.96875 18.246094 C 32.96875 18.574219 32.703125 18.90625 32.382812 18.984375 C 32.382812 18.984375 31.683594 19.152344 31.085938 19.5 C 30.488281 19.84375 29.988281 20.363281 29.988281 20.363281 C 29.761719 20.601562 29.339844 20.664062 29.054688 20.5 L 28.003906 19.890625 C 27.714844 19.726562 27.660156 19.390625 27.878906 19.140625 Z M 26.511719 26.695312 C 26.511719 26.695312 26.019531 25.230469 26.019531 24.101562 C 26.019531 22.976562 26.511719 21.511719 26.511719 21.511719 C 26.613281 21.199219 26.933594 21.074219 27.21875 21.242188 L 28.273438 21.847656 C 28.5625 22.015625 28.71875 22.40625 28.625 22.722656 C 28.625 22.722656 28.421875 23.414062 28.421875 24.101562 C 28.421875 24.792969 28.625 25.480469 28.625 25.480469 C 28.71875 25.800781 28.5625 26.191406 28.273438 26.355469 L 27.21875 26.964844 C 26.933594 27.128906 26.617188 27.007812 26.511719 26.695312 Z M 32.96875 31.179688 C 32.96875 31.507812 32.703125 31.722656 32.378906 31.65625 C 32.378906 31.65625 30.863281 31.347656 29.882812 30.785156 C 28.90625 30.21875 27.878906 29.0625 27.878906 29.0625 C 27.660156 28.816406 27.714844 28.480469 28.003906 28.316406 L 29.058594 27.707031 C 29.34375 27.542969 29.761719 27.605469 29.992188 27.84375 C 29.992188 27.84375 30.488281 28.363281 31.085938 28.707031 C 31.6875 29.050781 32.386719 29.222656 32.386719 29.222656 C 32.707031 29.296875 32.96875 29.632812 32.96875 29.960938 Z M 33.746094 26.882812 C 32.207031 26.882812 30.960938 25.636719 30.960938 24.101562 C 30.960938 22.570312 32.210938 21.324219 33.746094 21.324219 C 35.285156 21.324219 36.53125 22.570312 36.53125 24.101562 C 36.53125 25.636719 35.285156 26.882812 33.746094 26.882812 Z M 39.617188 29.0625 C 39.617188 29.0625 38.589844 30.21875 37.609375 30.785156 C 36.632812 31.347656 35.117188 31.65625 35.117188 31.65625 C 34.792969 31.722656 34.527344 31.507812 34.527344 31.179688 L 34.527344 29.960938 C 34.527344 29.628906 34.789062 29.296875 35.109375 29.222656 C 35.109375 29.222656 35.8125 29.050781 36.40625 28.707031 C 37.007812 28.363281 37.503906 27.84375 37.503906 27.84375 C 37.730469 27.601562 38.152344 27.542969 38.4375 27.707031 L 39.492188 28.316406 C 39.777344 28.480469 39.832031 28.816406 39.617188 29.0625 Z M 40.984375 26.695312 C 40.878906 27.007812 40.5625 27.128906 40.273438 26.964844 L 39.21875 26.355469 C 38.933594 26.191406 38.777344 25.800781 38.871094 25.480469 C 38.871094 25.480469 39.074219 24.792969 39.074219 24.101562 C 39.074219 23.414062 38.871094 22.722656 38.871094 22.722656 C 38.773438 22.40625 38.933594 22.015625 39.21875 21.847656 L 40.273438 21.242188 C 40.5625 21.074219 40.878906 21.195312 40.984375 21.511719 C 40.984375 21.511719 41.472656 22.976562 41.472656 24.101562 C 41.472656 25.230469 40.984375 26.695312 40.984375 26.695312 Z M 40.984375 26.695312 " fill-opacity="1" fill-rule="evenodd"/><g clip-path="url(#56fb920a8a)"><path fill="#f7941e" d="M 43.566406 9.261719 C 43.578125 9.125 43.585938 8.988281 43.585938 8.847656 C 43.585938 8.710938 43.578125 8.570312 43.566406 8.433594 L 42.839844 8.382812 C 42.816406 8.195312 42.78125 8.015625 42.734375 7.835938 L 43.382812 7.511719 C 43.300781 7.246094 43.191406 6.988281 43.0625 6.746094 L 42.375 6.976562 C 42.28125 6.8125 42.179688 6.660156 42.066406 6.511719 L 42.539062 5.960938 C 42.363281 5.75 42.167969 5.554688 41.953125 5.378906 L 41.402344 5.851562 C 41.257812 5.738281 41.101562 5.632812 40.941406 5.542969 L 41.167969 4.855469 C 40.925781 4.726562 40.671875 4.621094 40.40625 4.539062 L 40.078125 5.183594 C 39.898438 5.136719 39.71875 5.101562 39.53125 5.078125 L 39.476562 4.355469 C 39.34375 4.339844 39.203125 4.335938 39.066406 4.335938 C 38.925781 4.335938 38.785156 4.339844 38.652344 4.355469 L 38.597656 5.078125 C 38.410156 5.101562 38.230469 5.136719 38.050781 5.183594 L 37.726562 4.539062 C 37.457031 4.621094 37.203125 4.726562 36.960938 4.855469 L 37.1875 5.542969 C 37.027344 5.636719 36.871094 5.738281 36.726562 5.851562 L 36.175781 5.378906 C 35.964844 5.554688 35.765625 5.75 35.589844 5.960938 L 36.0625 6.511719 C 35.949219 6.65625 35.84375 6.8125 35.753906 6.976562 L 35.066406 6.746094 C 34.9375 6.988281 34.828125 7.246094 34.746094 7.511719 L 35.394531 7.835938 C 35.347656 8.015625 35.3125 8.195312 35.289062 8.382812 L 34.5625 8.433594 C 34.550781 8.570312 34.542969 8.710938 34.542969 8.847656 C 34.542969 8.988281 34.550781 9.125 34.5625 9.261719 L 35.285156 9.3125 C 35.308594 9.5 35.347656 9.683594 35.394531 9.859375 L 34.746094 10.1875 C 34.828125 10.453125 34.933594 10.707031 35.0625 10.949219 L 35.753906 10.722656 C 35.84375 10.882812 35.949219 11.035156 36.0625 11.183594 L 35.585938 11.734375 C 35.765625 11.945312 35.960938 12.140625 36.171875 12.316406 L 36.722656 11.84375 C 36.871094 11.957031 37.023438 12.0625 37.1875 12.152344 L 36.957031 12.839844 C 37.203125 12.96875 37.457031 13.074219 37.722656 13.160156 L 38.050781 12.511719 C 38.226562 12.5625 38.410156 12.59375 38.597656 12.617188 L 38.648438 13.339844 C 38.785156 13.351562 38.925781 13.363281 39.0625 13.363281 C 39.203125 13.363281 39.339844 13.355469 39.476562 13.339844 L 39.53125 12.617188 C 39.714844 12.59375 39.898438 12.558594 40.074219 12.511719 L 40.402344 13.160156 C 40.667969 13.074219 40.921875 12.96875 41.167969 12.839844 L 40.9375 12.152344 C 41.101562 12.058594 41.253906 11.957031 41.402344 11.84375 L 41.953125 12.316406 C 42.164062 12.140625 42.359375 11.945312 42.539062 11.734375 L 42.0625 11.183594 C 42.175781 11.039062 42.28125 10.882812 42.371094 10.722656 L 43.0625 10.949219 C 43.191406 10.707031 43.296875 10.453125 43.378906 10.1875 L 42.730469 9.859375 C 42.78125 9.683594 42.816406 9.5 42.839844 9.3125 Z M 39.0625 11.40625 C 37.648438 11.40625 36.5 10.261719 36.5 8.847656 C 36.5 7.433594 37.648438 6.289062 39.0625 6.289062 C 40.476562 6.289062 41.625 7.433594 41.625 8.847656 C 41.625 10.261719 40.480469 11.40625 39.0625 11.40625 Z M 39.0625 11.40625 " fill-opacity="1" fill-rule="evenodd"/></g><g clip-path="url(#5bdfbeb390)"><path fill="#f7941e" d="M 33.335938 39.976562 C 33.347656 39.84375 33.355469 39.703125 33.355469 39.566406 C 33.355469 39.425781 33.347656 39.289062 33.335938 39.152344 L 32.609375 39.097656 C 32.585938 38.914062 32.550781 38.730469 32.503906 38.554688 L 33.152344 38.226562 C 33.070312 37.960938 32.960938 37.707031 32.832031 37.464844 L 32.144531 37.691406 C 32.050781 37.53125 31.949219 37.375 31.835938 37.230469 L 32.308594 36.679688 C 32.132812 36.46875 31.9375 36.273438 31.722656 36.09375 L 31.171875 36.570312 C 31.027344 36.453125 30.871094 36.351562 30.710938 36.261719 L 30.9375 35.570312 C 30.695312 35.445312 30.441406 35.335938 30.171875 35.253906 L 29.847656 35.902344 C 29.667969 35.851562 29.488281 35.816406 29.300781 35.792969 L 29.246094 35.070312 C 29.113281 35.058594 28.972656 35.050781 28.832031 35.050781 C 28.695312 35.050781 28.554688 35.058594 28.421875 35.070312 L 28.367188 35.792969 C 28.179688 35.816406 28 35.855469 27.820312 35.902344 L 27.496094 35.253906 C 27.226562 35.335938 26.972656 35.441406 26.730469 35.570312 L 26.957031 36.257812 C 26.792969 36.351562 26.640625 36.453125 26.492188 36.566406 L 25.941406 36.09375 C 25.730469 36.269531 25.535156 36.464844 25.355469 36.679688 L 25.832031 37.226562 C 25.71875 37.375 25.613281 37.527344 25.523438 37.691406 L 24.832031 37.460938 C 24.707031 37.703125 24.597656 37.960938 24.515625 38.226562 L 25.164062 38.550781 C 25.113281 38.730469 25.078125 38.910156 25.054688 39.097656 L 24.332031 39.148438 C 24.320312 39.285156 24.3125 39.425781 24.3125 39.5625 C 24.3125 39.703125 24.316406 39.839844 24.328125 39.976562 L 25.054688 40.027344 C 25.078125 40.214844 25.113281 40.398438 25.160156 40.574219 L 24.511719 40.902344 C 24.597656 41.167969 24.703125 41.421875 24.832031 41.664062 L 25.519531 41.4375 C 25.613281 41.597656 25.714844 41.75 25.832031 41.898438 L 25.355469 42.449219 C 25.53125 42.660156 25.726562 42.855469 25.941406 43.03125 L 26.492188 42.558594 C 26.636719 42.671875 26.792969 42.777344 26.953125 42.867188 L 26.726562 43.554688 C 26.96875 43.683594 27.222656 43.789062 27.492188 43.875 L 27.816406 43.226562 C 27.996094 43.277344 28.175781 43.308594 28.363281 43.332031 L 28.417969 44.058594 C 28.554688 44.066406 28.691406 44.078125 28.832031 44.078125 C 28.96875 44.078125 29.109375 44.070312 29.246094 44.058594 L 29.296875 43.332031 C 29.484375 43.308594 29.664062 43.273438 29.84375 43.226562 L 30.171875 43.875 C 30.4375 43.789062 30.691406 43.683594 30.933594 43.554688 L 30.707031 42.867188 C 30.867188 42.773438 31.023438 42.671875 31.167969 42.558594 L 31.71875 43.03125 C 31.933594 42.855469 32.128906 42.660156 32.304688 42.449219 L 31.832031 41.898438 C 31.945312 41.753906 32.050781 41.597656 32.140625 41.4375 L 32.832031 41.664062 C 32.957031 41.421875 33.066406 41.167969 33.148438 40.902344 L 32.5 40.574219 C 32.550781 40.398438 32.585938 40.214844 32.605469 40.027344 Z M 28.832031 42.121094 C 27.417969 42.121094 26.273438 40.976562 26.273438 39.5625 C 26.273438 38.152344 27.417969 37.003906 28.832031 37.003906 C 30.25 37.003906 31.394531 38.148438 31.394531 39.5625 C 31.394531 40.976562 30.25 42.121094 28.832031 42.121094 Z M 28.832031 42.121094 " fill-opacity="1" fill-rule="evenodd"/></g><g fill="#f15a29" fill-opacity="1"><g transform="translate(12.483267, 56.805443)"><g><path d="M 2.40625 -5.96875 L 0.046875 -5.96875 L 0.046875 -7.703125 L 6.9375 -7.703125 L 6.9375 -5.96875 L 4.59375 -5.96875 L 4.59375 0 L 2.40625 0 Z M 2.40625 -5.96875 "/></g></g></g><g fill="#f15a29" fill-opacity="1"><g transform="translate(19.463327, 56.805443)"><g><path d="M 0.765625 -7.703125 L 2.953125 -7.703125 L 2.953125 0 L 0.765625 0 Z M 0.765625 -7.703125 "/></g></g></g><g fill="#f15a29" fill-opacity="1"><g transform="translate(23.189694, 56.805443)"><g><path d="M 6.953125 -1.6875 L 6.953125 0 L 0.765625 0 L 0.765625 -7.703125 L 6.8125 -7.703125 L 6.8125 -6.015625 L 2.921875 -6.015625 L 2.921875 -4.71875 L 6.34375 -4.71875 L 6.34375 -3.09375 L 2.921875 -3.09375 L 2.921875 -1.6875 Z M 6.953125 -1.6875 "/></g></g></g><g fill="#f15a29" fill-opacity="1"><g transform="translate(30.576477, 56.805443)"><g><path d="M 8.09375 -7.703125 L 8.09375 0 L 6.296875 0 L 2.90625 -4.109375 L 2.90625 0 L 0.765625 0 L 0.765625 -7.703125 L 2.5625 -7.703125 L 5.96875 -3.59375 L 5.96875 -7.703125 Z M 8.09375 -7.703125 "/></g></g></g><g fill="#f15a29" fill-opacity="1"><g transform="translate(39.42467, 56.805443)"><g/></g></g><g fill="#000000" fill-opacity="1"><g transform="translate(40.549229, 56.805443)"><g><path d="M 3.46875 0.15625 C 2.851562 0.15625 2.25 0.078125 1.65625 -0.078125 C 1.070312 -0.234375 0.597656 -0.4375 0.234375 -0.6875 L 0.953125 -2.296875 C 1.296875 -2.066406 1.691406 -1.882812 2.140625 -1.75 C 2.597656 -1.613281 3.046875 -1.546875 3.484375 -1.546875 C 4.316406 -1.546875 4.734375 -1.753906 4.734375 -2.171875 C 4.734375 -2.390625 4.613281 -2.550781 4.375 -2.65625 C 4.144531 -2.757812 3.765625 -2.867188 3.234375 -2.984375 C 2.648438 -3.109375 2.164062 -3.242188 1.78125 -3.390625 C 1.394531 -3.535156 1.0625 -3.765625 0.78125 -4.078125 C 0.5 -4.390625 0.359375 -4.816406 0.359375 -5.359375 C 0.359375 -5.828125 0.488281 -6.25 0.75 -6.625 C 1.007812 -7 1.390625 -7.296875 1.890625 -7.515625 C 2.398438 -7.742188 3.023438 -7.859375 3.765625 -7.859375 C 4.273438 -7.859375 4.773438 -7.800781 5.265625 -7.6875 C 5.753906 -7.570312 6.1875 -7.40625 6.5625 -7.1875 L 5.890625 -5.5625 C 5.160156 -5.957031 4.453125 -6.15625 3.765625 -6.15625 C 3.328125 -6.15625 3.007812 -6.09375 2.8125 -5.96875 C 2.613281 -5.84375 2.515625 -5.675781 2.515625 -5.46875 C 2.515625 -5.257812 2.628906 -5.101562 2.859375 -5 C 3.097656 -4.894531 3.476562 -4.789062 4 -4.6875 C 4.59375 -4.5625 5.078125 -4.425781 5.453125 -4.28125 C 5.835938 -4.132812 6.171875 -3.90625 6.453125 -3.59375 C 6.742188 -3.289062 6.890625 -2.867188 6.890625 -2.328125 C 6.890625 -1.867188 6.757812 -1.453125 6.5 -1.078125 C 6.238281 -0.703125 5.851562 -0.398438 5.34375 -0.171875 C 4.832031 0.046875 4.207031 0.15625 3.46875 0.15625 Z M 3.46875 0.15625 "/></g></g></g><g fill="#000000" fill-opacity="1"><g transform="translate(47.661205, 56.805443)"><g><path d="M 4.890625 -2.765625 L 4.890625 0 L 2.71875 0 L 2.71875 -2.796875 L -0.21875 -7.703125 L 2.078125 -7.703125 L 3.90625 -4.640625 L 5.734375 -7.703125 L 7.84375 -7.703125 Z M 4.890625 -2.765625 "/></g></g></g><g fill="#000000" fill-opacity="1"><g transform="translate(26.548609, 63.21187)"><g><path d="M 1.46875 -0.359375 L 0.625 -0.359375 L 0.484375 0 L -0.015625 0 L 0.8125 -1.921875 L 1.3125 -1.921875 L 2.125 0 L 1.59375 0 Z M 1.328125 -0.71875 L 1.046875 -1.4375 L 0.765625 -0.71875 Z M 1.328125 -0.71875 "/></g></g></g><g fill="#000000" fill-opacity="1"><g transform="translate(28.6549, 63.21187)"><g><path d="M 1.09375 -1.9375 C 1.226562 -1.9375 1.363281 -1.90625 1.5 -1.84375 C 1.644531 -1.78125 1.765625 -1.703125 1.859375 -1.609375 L 1.578125 -1.28125 C 1.515625 -1.351562 1.4375 -1.410156 1.34375 -1.453125 C 1.257812 -1.492188 1.175781 -1.515625 1.09375 -1.515625 C 0.945312 -1.515625 0.820312 -1.460938 0.71875 -1.359375 C 0.613281 -1.253906 0.5625 -1.125 0.5625 -0.96875 C 0.5625 -0.8125 0.613281 -0.675781 0.71875 -0.5625 C 0.820312 -0.457031 0.945312 -0.40625 1.09375 -0.40625 C 1.175781 -0.40625 1.257812 -0.425781 1.34375 -0.46875 C 1.4375 -0.507812 1.515625 -0.5625 1.578125 -0.625 L 1.859375 -0.328125 C 1.753906 -0.222656 1.628906 -0.140625 1.484375 -0.078125 C 1.347656 -0.015625 1.210938 0.015625 1.078125 0.015625 C 0.785156 0.015625 0.539062 -0.078125 0.34375 -0.265625 C 0.15625 -0.453125 0.0625 -0.6875 0.0625 -0.96875 C 0.0625 -1.238281 0.160156 -1.46875 0.359375 -1.65625 C 0.554688 -1.84375 0.800781 -1.9375 1.09375 -1.9375 Z M 1.09375 -1.9375 "/></g></g></g><g fill="#000000" fill-opacity="1"><g transform="translate(30.547826, 63.21187)"><g><path d="M 1.46875 -0.359375 L 0.625 -0.359375 L 0.484375 0 L -0.015625 0 L 0.8125 -1.921875 L 1.3125 -1.921875 L 2.125 0 L 1.59375 0 Z M 1.328125 -0.71875 L 1.046875 -1.4375 L 0.765625 -0.71875 Z M 1.328125 -0.71875 "/></g></g></g><g fill="#000000" fill-opacity="1"><g transform="translate(32.654116, 63.21187)"><g><path d="M 0.1875 -1.921875 L 1.015625 -1.921875 C 1.316406 -1.921875 1.5625 -1.832031 1.75 -1.65625 C 1.9375 -1.476562 2.03125 -1.242188 2.03125 -0.953125 C 2.03125 -0.671875 1.929688 -0.441406 1.734375 -0.265625 C 1.546875 -0.0859375 1.300781 0 1 0 L 0.1875 0 Z M 0.671875 -1.53125 L 0.671875 -0.390625 L 1.03125 -0.390625 C 1.175781 -0.390625 1.296875 -0.441406 1.390625 -0.546875 C 1.484375 -0.648438 1.53125 -0.785156 1.53125 -0.953125 C 1.53125 -1.117188 1.476562 -1.253906 1.375 -1.359375 C 1.28125 -1.472656 1.15625 -1.53125 1 -1.53125 Z M 0.671875 -1.53125 "/></g></g></g><g fill="#000000" fill-opacity="1"><g transform="translate(34.752201, 63.21187)"><g><path d="M 1.6875 -1.53125 L 0.671875 -1.53125 L 0.671875 -1.15625 L 1.59375 -1.15625 L 1.59375 -0.765625 L 0.671875 -0.765625 L 0.671875 -0.390625 L 1.71875 -0.390625 L 1.71875 0 L 0.1875 0 L 0.1875 -1.921875 L 1.6875 -1.921875 Z M 1.6875 -1.53125 "/></g></g></g><g fill="#000000" fill-opacity="1"><g transform="translate(36.595889, 63.21187)"><g><path d="M 2.296875 0 L 1.859375 0 L 1.859375 -1.25 L 1.40625 -0.1875 L 1.078125 -0.1875 L 0.625 -1.25 L 0.625 0 L 0.1875 0 L 0.1875 -1.921875 L 0.71875 -1.921875 L 1.25 -0.78125 L 1.765625 -1.921875 L 2.296875 -1.921875 Z M 2.296875 0 "/></g></g></g><g fill="#000000" fill-opacity="1"><g transform="translate(39.08514, 63.21187)"><g><path d="M 1.171875 -0.625 L 1.171875 0 L 0.6875 0 L 0.6875 -0.609375 L -0.015625 -1.921875 L 0.46875 -1.921875 L 0.9375 -1.078125 L 1.390625 -1.921875 L 1.875 -1.921875 Z M 1.171875 -0.625 "/></g></g></g></svg>