<svg xmlns="http://www.w3.org/2000/svg" xmlns:xlink="http://www.w3.org/1999/xlink" width="200" zoomAndPan="magnify" viewBox="0 0 150 74.999997" height="100" preserveAspectRatio="xMidYMid meet" version="1.0"><defs><g/><clipPath id="8df5ac3236"><path d="M 54.410156 8 L 66 8 L 66 45 L 54.410156 45 Z M 54.410156 8 " clip-rule="nonzero"/></clipPath><clipPath id="7515c2e769"><path d="M 84 8 L 95.660156 8 L 95.660156 45 L 84 45 Z M 84 8 " clip-rule="nonzero"/></clipPath><clipPath id="54d1c9f99f"><path d="M 75 7.300781 L 85 7.300781 L 85 17 L 75 17 Z M 75 7.300781 " clip-rule="nonzero"/></clipPath><clipPath id="5e45f7c619"><path d="M 65 37 L 75 37 L 75 46.300781 L 65 46.300781 Z M 65 37 " clip-rule="nonzero"/></clipPath></defs><g clip-path="url(#8df5ac3236)"><path fill="#151f28" d="M 62.375 22.101562 L 62.375 14.222656 C 62.375 13.148438 62.824219 12.566406 64.011719 12.566406 L 65.210938 12.566406 L 65.210938 8.832031 L 62.78125 8.832031 C 60.699219 8.832031 57.882812 10.117188 57.882812 13.808594 L 57.882812 21.273438 C 57.882812 23.347656 56.246094 24.589844 54.613281 24.589844 C 54.539062 24.589844 54.46875 24.605469 54.410156 24.636719 L 54.410156 28.6875 C 54.46875 28.71875 54.539062 28.738281 54.613281 28.738281 C 56.25 28.738281 57.882812 29.980469 57.882812 32.054688 L 57.882812 39.519531 C 57.882812 43.207031 60.699219 44.492188 62.78125 44.492188 L 65.210938 44.492188 L 65.210938 40.761719 L 64.007812 40.761719 C 62.824219 40.761719 62.375 40.183594 62.375 39.101562 L 62.375 31.226562 C 62.375 28.324219 60.332031 27.078125 60.332031 27.078125 L 58.289062 26.664062 L 60.332031 26.25 C 60.332031 26.246094 62.375 25.003906 62.375 22.101562 Z M 62.375 22.101562 " fill-opacity="1" fill-rule="nonzero"/></g><g clip-path="url(#7515c2e769)"><path fill="#151f28" d="M 87.695312 22.101562 L 87.695312 14.222656 C 87.695312 13.148438 87.246094 12.566406 86.0625 12.566406 L 84.859375 12.566406 L 84.859375 8.832031 L 87.289062 8.832031 C 89.371094 8.832031 92.191406 10.117188 92.191406 13.808594 L 92.191406 21.273438 C 92.191406 23.347656 93.824219 24.589844 95.457031 24.589844 C 95.535156 24.589844 95.605469 24.605469 95.660156 24.636719 L 95.660156 28.6875 C 95.601562 28.71875 95.535156 28.738281 95.457031 28.738281 C 93.824219 28.738281 92.191406 29.980469 92.191406 32.054688 L 92.191406 39.519531 C 92.191406 43.207031 89.371094 44.492188 87.289062 44.492188 L 84.863281 44.492188 L 84.863281 40.761719 L 86.0625 40.761719 C 87.25 40.761719 87.699219 40.183594 87.699219 39.101562 L 87.699219 31.226562 C 87.699219 28.324219 89.738281 27.078125 89.738281 27.078125 L 91.78125 26.664062 L 89.738281 26.25 C 89.738281 26.246094 87.695312 25.003906 87.695312 22.101562 Z M 87.695312 22.101562 " fill-opacity="1" fill-rule="nonzero"/></g><path fill="#f15a29" d="M 85.667969 27.660156 C 85.699219 27.332031 85.714844 27 85.714844 26.664062 C 85.714844 26.324219 85.695312 25.992188 85.667969 25.664062 L 83.945312 25.535156 C 83.890625 25.085938 83.804688 24.644531 83.6875 24.214844 L 85.234375 23.425781 C 85.035156 22.785156 84.78125 22.167969 84.476562 21.582031 L 82.839844 22.132812 C 82.621094 21.742188 82.371094 21.367188 82.101562 21.015625 L 83.226562 19.6875 C 82.808594 19.175781 82.34375 18.703125 81.835938 18.277344 L 80.527344 19.421875 C 80.179688 19.144531 79.8125 18.894531 79.429688 18.671875 L 79.96875 17.007812 C 79.394531 16.699219 78.785156 16.441406 78.152344 16.242188 L 77.375 17.808594 C 76.953125 17.691406 76.519531 17.601562 76.078125 17.546875 L 75.949219 15.800781 C 75.625 15.769531 75.296875 15.753906 74.964844 15.753906 C 74.632812 15.753906 74.304688 15.769531 73.980469 15.800781 L 73.855469 17.546875 C 73.410156 17.601562 72.976562 17.691406 72.554688 17.808594 L 71.777344 16.242188 C 71.144531 16.441406 70.539062 16.699219 69.960938 17.007812 L 70.503906 18.671875 C 70.117188 18.894531 69.75 19.144531 69.402344 19.421875 L 68.09375 18.277344 C 67.589844 18.703125 67.125 19.175781 66.703125 19.6875 L 67.832031 21.015625 C 67.558594 21.367188 67.3125 21.742188 67.09375 22.132812 L 65.453125 21.582031 C 65.148438 22.167969 64.894531 22.785156 64.699219 23.425781 L 66.242188 24.214844 C 66.125 24.644531 66.039062 25.085938 65.984375 25.535156 L 64.265625 25.664062 C 64.234375 25.992188 64.21875 26.328125 64.21875 26.664062 C 64.21875 27 64.234375 27.332031 64.265625 27.660156 L 65.984375 27.789062 C 66.039062 28.242188 66.125 28.679688 66.242188 29.109375 L 64.699219 29.898438 C 64.894531 30.539062 65.148438 31.15625 65.453125 31.742188 L 67.09375 31.191406 C 67.3125 31.585938 67.558594 31.957031 67.832031 32.308594 L 66.703125 33.636719 C 67.121094 34.148438 67.589844 34.625 68.09375 35.050781 L 69.402344 33.90625 C 69.75 34.183594 70.117188 34.433594 70.503906 34.652344 L 69.960938 36.320312 C 70.539062 36.628906 71.144531 36.886719 71.777344 37.085938 L 72.554688 35.515625 C 72.976562 35.636719 73.410156 35.722656 73.855469 35.777344 L 73.980469 37.527344 C 74.304688 37.554688 74.632812 37.570312 74.964844 37.570312 C 75.296875 37.570312 75.625 37.554688 75.949219 37.527344 L 76.078125 35.777344 C 76.519531 35.722656 76.953125 35.636719 77.375 35.515625 L 78.152344 37.085938 C 78.785156 36.886719 79.394531 36.628906 79.96875 36.320312 L 79.429688 34.652344 C 79.8125 34.433594 80.179688 34.179688 80.527344 33.90625 L 81.839844 35.050781 C 82.34375 34.625 82.808594 34.152344 83.230469 33.636719 L 82.101562 32.308594 C 82.371094 31.957031 82.617188 31.582031 82.839844 31.191406 L 84.480469 31.742188 C 84.78125 31.15625 85.035156 30.539062 85.234375 29.898438 L 83.6875 29.109375 C 83.804688 28.679688 83.890625 28.242188 83.945312 27.789062 Z M 75.683594 19.757812 C 75.683594 19.433594 75.9375 19.222656 76.25 19.289062 C 76.25 19.289062 77.714844 19.59375 78.660156 20.144531 C 79.601562 20.699219 80.59375 21.832031 80.59375 21.832031 C 80.804688 22.074219 80.753906 22.40625 80.476562 22.566406 L 79.457031 23.164062 C 79.179688 23.324219 78.773438 23.265625 78.554688 23.03125 C 78.554688 23.03125 78.074219 22.519531 77.5 22.183594 C 76.921875 21.84375 76.246094 21.679688 76.246094 21.679688 C 75.9375 21.601562 75.683594 21.277344 75.683594 20.953125 Z M 69.265625 21.832031 C 69.265625 21.832031 70.257812 20.699219 71.203125 20.144531 C 72.144531 19.59375 73.609375 19.289062 73.609375 19.289062 C 73.921875 19.222656 74.175781 19.433594 74.175781 19.757812 L 74.175781 20.953125 C 74.175781 21.277344 73.921875 21.601562 73.613281 21.679688 C 73.613281 21.679688 72.9375 21.84375 72.359375 22.183594 C 71.78125 22.519531 71.304688 23.03125 71.304688 23.03125 C 71.082031 23.265625 70.679688 23.324219 70.402344 23.164062 L 69.386719 22.570312 C 69.109375 22.40625 69.058594 22.074219 69.265625 21.832031 Z M 67.945312 29.242188 C 67.945312 29.242188 67.472656 27.804688 67.472656 26.699219 C 67.472656 25.59375 67.945312 24.15625 67.945312 24.15625 C 68.046875 23.851562 68.355469 23.730469 68.628906 23.890625 L 69.648438 24.488281 C 69.925781 24.652344 70.078125 25.035156 69.988281 25.347656 C 69.988281 25.347656 69.789062 26.023438 69.789062 26.699219 C 69.789062 27.378906 69.988281 28.054688 69.988281 28.054688 C 70.078125 28.363281 69.925781 28.75 69.648438 28.910156 L 68.628906 29.507812 C 68.355469 29.671875 68.046875 29.550781 67.945312 29.242188 Z M 74.175781 33.640625 C 74.175781 33.964844 73.921875 34.175781 73.609375 34.109375 C 73.609375 34.109375 72.144531 33.804688 71.203125 33.253906 C 70.257812 32.703125 69.265625 31.566406 69.265625 31.566406 C 69.058594 31.324219 69.109375 30.996094 69.386719 30.832031 L 70.402344 30.238281 C 70.679688 30.074219 71.085938 30.136719 71.304688 30.367188 C 71.304688 30.367188 71.785156 30.878906 72.363281 31.21875 C 72.941406 31.554688 73.613281 31.722656 73.613281 31.722656 C 73.925781 31.796875 74.179688 32.125 74.179688 32.449219 L 74.179688 33.640625 Z M 74.929688 29.425781 C 73.445312 29.425781 72.242188 28.207031 72.242188 26.699219 C 72.242188 25.195312 73.445312 23.972656 74.929688 23.972656 C 76.410156 23.972656 77.613281 25.195312 77.613281 26.699219 C 77.613281 28.207031 76.414062 29.425781 74.929688 29.425781 Z M 80.589844 31.566406 C 80.589844 31.566406 79.601562 32.703125 78.65625 33.253906 C 77.714844 33.804688 76.25 34.109375 76.25 34.109375 C 75.9375 34.175781 75.683594 33.964844 75.683594 33.640625 L 75.683594 32.445312 C 75.683594 32.121094 75.9375 31.796875 76.246094 31.722656 C 76.246094 31.722656 76.921875 31.554688 77.496094 31.21875 C 78.074219 30.878906 78.554688 30.367188 78.554688 30.367188 C 78.773438 30.132812 79.179688 30.074219 79.453125 30.238281 L 80.472656 30.832031 C 80.75 30.996094 80.800781 31.324219 80.589844 31.566406 Z M 81.914062 29.242188 C 81.8125 29.550781 81.503906 29.671875 81.226562 29.507812 L 80.210938 28.910156 C 79.933594 28.75 79.78125 28.363281 79.871094 28.054688 C 79.871094 28.054688 80.066406 27.378906 80.066406 26.699219 C 80.066406 26.023438 79.871094 25.347656 79.871094 25.347656 C 79.78125 25.035156 79.933594 24.652344 80.210938 24.488281 L 81.226562 23.890625 C 81.503906 23.730469 81.8125 23.847656 81.914062 24.15625 C 81.914062 24.15625 82.386719 25.59375 82.386719 26.699219 C 82.382812 27.808594 81.914062 29.242188 81.914062 29.242188 Z M 81.914062 29.242188 " fill-opacity="1" fill-rule="evenodd"/><g clip-path="url(#54d1c9f99f)"><path fill="#f7941e" d="M 84.402344 12.140625 C 84.414062 12.007812 84.421875 11.871094 84.421875 11.734375 C 84.421875 11.597656 84.414062 11.460938 84.402344 11.328125 L 83.703125 11.277344 C 83.679688 11.09375 83.644531 10.914062 83.601562 10.742188 L 84.226562 10.421875 C 84.144531 10.160156 84.042969 9.910156 83.917969 9.671875 L 83.253906 9.894531 C 83.164062 9.738281 83.066406 9.585938 82.957031 9.441406 L 83.414062 8.902344 C 83.242188 8.695312 83.054688 8.503906 82.847656 8.328125 L 82.316406 8.792969 C 82.175781 8.683594 82.027344 8.582031 81.871094 8.492188 L 82.089844 7.816406 C 81.855469 7.691406 81.609375 7.585938 81.351562 7.503906 L 81.035156 8.140625 C 80.867188 8.089844 80.691406 8.058594 80.511719 8.035156 L 80.457031 7.324219 C 80.328125 7.3125 80.195312 7.304688 80.058594 7.304688 C 79.925781 7.304688 79.792969 7.3125 79.660156 7.324219 L 79.609375 8.035156 C 79.429688 8.058594 79.253906 8.09375 79.082031 8.140625 L 78.765625 7.503906 C 78.511719 7.585938 78.265625 7.691406 78.03125 7.816406 L 78.25 8.492188 C 78.09375 8.582031 77.945312 8.683594 77.804688 8.792969 L 77.273438 8.328125 C 77.066406 8.503906 76.878906 8.695312 76.707031 8.902344 L 77.164062 9.441406 C 77.054688 9.585938 76.953125 9.738281 76.867188 9.894531 L 76.199219 9.671875 C 76.078125 9.910156 75.972656 10.160156 75.894531 10.421875 L 76.519531 10.742188 C 76.472656 10.914062 76.4375 11.09375 76.417969 11.277344 L 75.71875 11.328125 C 75.707031 11.460938 75.699219 11.597656 75.699219 11.734375 C 75.699219 11.871094 75.703125 12.007812 75.714844 12.140625 L 76.414062 12.191406 C 76.4375 12.375 76.472656 12.550781 76.519531 12.726562 L 75.894531 13.046875 C 75.972656 13.308594 76.074219 13.554688 76.199219 13.792969 L 76.863281 13.570312 C 76.953125 13.730469 77.054688 13.878906 77.164062 14.023438 L 76.703125 14.5625 C 76.875 14.773438 77.0625 14.964844 77.269531 15.136719 L 77.800781 14.671875 C 77.941406 14.785156 78.09375 14.886719 78.25 14.976562 L 78.027344 15.652344 C 78.261719 15.777344 78.507812 15.882812 78.765625 15.960938 L 79.082031 15.328125 C 79.253906 15.375 79.429688 15.410156 79.609375 15.433594 L 79.660156 16.140625 C 79.789062 16.152344 79.925781 16.160156 80.058594 16.160156 C 80.191406 16.160156 80.328125 16.15625 80.457031 16.140625 L 80.507812 15.433594 C 80.6875 15.410156 80.863281 15.375 81.035156 15.328125 L 81.351562 15.960938 C 81.609375 15.882812 81.855469 15.777344 82.089844 15.652344 L 81.867188 14.976562 C 82.023438 14.886719 82.171875 14.785156 82.316406 14.671875 L 82.847656 15.136719 C 83.050781 14.964844 83.242188 14.773438 83.410156 14.5625 L 82.953125 14.023438 C 83.0625 13.882812 83.164062 13.730469 83.253906 13.570312 L 83.917969 13.792969 C 84.039062 13.554688 84.144531 13.308594 84.222656 13.046875 L 83.597656 12.726562 C 83.644531 12.550781 83.679688 12.375 83.703125 12.191406 Z M 80.058594 14.242188 C 78.695312 14.242188 77.585938 13.117188 77.585938 11.730469 C 77.585938 10.347656 78.691406 9.222656 80.058594 9.222656 C 81.421875 9.222656 82.53125 10.34375 82.53125 11.730469 C 82.53125 13.117188 81.425781 14.242188 80.058594 14.242188 Z M 80.058594 14.242188 " fill-opacity="1" fill-rule="evenodd"/></g><g clip-path="url(#5e45f7c619)"><path fill="#f7941e" d="M 74.53125 42.273438 C 74.542969 42.140625 74.550781 42.003906 74.550781 41.867188 C 74.550781 41.734375 74.542969 41.597656 74.53125 41.464844 L 73.832031 41.410156 C 73.808594 41.230469 73.773438 41.050781 73.726562 40.878906 L 74.355469 40.554688 C 74.273438 40.296875 74.171875 40.046875 74.046875 39.808594 L 73.382812 40.03125 C 73.292969 39.871094 73.195312 39.722656 73.082031 39.578125 L 73.542969 39.039062 C 73.371094 38.832031 73.183594 38.636719 72.976562 38.464844 L 72.445312 38.929688 C 72.304688 38.816406 72.15625 38.714844 72 38.625 L 72.21875 37.949219 C 71.984375 37.828125 71.738281 37.722656 71.480469 37.640625 L 71.164062 38.273438 C 70.996094 38.226562 70.820312 38.191406 70.636719 38.167969 L 70.585938 37.460938 C 70.457031 37.445312 70.324219 37.441406 70.1875 37.441406 C 70.054688 37.441406 69.921875 37.445312 69.789062 37.460938 L 69.738281 38.167969 C 69.558594 38.191406 69.382812 38.226562 69.210938 38.273438 L 68.894531 37.640625 C 68.636719 37.722656 68.394531 37.824219 68.15625 37.949219 L 68.375 38.625 C 68.21875 38.714844 68.070312 38.816406 67.929688 38.929688 L 67.398438 38.464844 C 67.195312 38.636719 67.003906 38.828125 66.832031 39.035156 L 67.292969 39.574219 C 67.179688 39.71875 67.082031 39.871094 66.992188 40.03125 L 66.328125 39.804688 C 66.203125 40.042969 66.101562 40.292969 66.019531 40.554688 L 66.648438 40.875 C 66.597656 41.050781 66.566406 41.226562 66.542969 41.410156 L 65.84375 41.460938 C 65.832031 41.59375 65.824219 41.730469 65.824219 41.867188 C 65.824219 42.003906 65.832031 42.140625 65.84375 42.273438 L 66.542969 42.324219 C 66.5625 42.507812 66.597656 42.683594 66.644531 42.859375 L 66.019531 43.179688 C 66.097656 43.441406 66.203125 43.691406 66.324219 43.929688 L 66.992188 43.703125 C 67.082031 43.863281 67.179688 44.015625 67.289062 44.160156 L 66.832031 44.699219 C 67.003906 44.90625 67.191406 45.097656 67.398438 45.269531 L 67.929688 44.804688 C 68.070312 44.917969 68.21875 45.019531 68.375 45.109375 L 68.15625 45.785156 C 68.390625 45.910156 68.636719 46.015625 68.890625 46.097656 L 69.207031 45.460938 C 69.378906 45.507812 69.554688 45.542969 69.734375 45.566406 L 69.785156 46.277344 C 69.917969 46.289062 70.050781 46.296875 70.183594 46.296875 C 70.320312 46.296875 70.453125 46.289062 70.585938 46.277344 L 70.636719 45.566406 C 70.816406 45.542969 70.992188 45.507812 71.160156 45.460938 L 71.476562 46.097656 C 71.734375 46.015625 71.980469 45.910156 72.214844 45.785156 L 71.996094 45.109375 C 72.152344 45.019531 72.300781 44.917969 72.441406 44.804688 L 72.972656 45.269531 C 73.179688 45.097656 73.367188 44.90625 73.539062 44.699219 L 73.082031 44.160156 C 73.191406 44.015625 73.292969 43.863281 73.378906 43.703125 L 74.042969 43.929688 C 74.167969 43.691406 74.269531 43.441406 74.351562 43.179688 L 73.726562 42.859375 C 73.773438 42.683594 73.808594 42.503906 73.828125 42.324219 Z M 70.1875 44.375 C 68.824219 44.375 67.714844 43.253906 67.714844 41.867188 C 67.714844 40.480469 68.820312 39.355469 70.1875 39.355469 C 71.554688 39.355469 72.660156 40.480469 72.660156 41.867188 C 72.660156 43.253906 71.554688 44.375 70.1875 44.375 Z M 70.1875 44.375 " fill-opacity="1" fill-rule="evenodd"/></g><g fill="#f15a29" fill-opacity="1"><g transform="translate(54.802015, 58.898217)"><g><path d="M 2.078125 -5.15625 L 0.03125 -5.15625 L 0.03125 -6.65625 L 6 -6.65625 L 6 -5.15625 L 3.96875 -5.15625 L 3.96875 0 L 2.078125 0 Z M 2.078125 -5.15625 "/></g></g></g><g fill="#f15a29" fill-opacity="1"><g transform="translate(60.829538, 58.898217)"><g><path d="M 0.671875 -6.65625 L 2.546875 -6.65625 L 2.546875 0 L 0.671875 0 Z M 0.671875 -6.65625 "/></g></g></g><g fill="#f15a29" fill-opacity="1"><g transform="translate(64.047376, 58.898217)"><g><path d="M 6 -1.453125 L 6 0 L 0.671875 0 L 0.671875 -6.65625 L 5.875 -6.65625 L 5.875 -5.203125 L 2.53125 -5.203125 L 2.53125 -4.078125 L 5.484375 -4.078125 L 5.484375 -2.671875 L 2.53125 -2.671875 L 2.53125 -1.453125 Z M 6 -1.453125 "/></g></g></g><g fill="#f15a29" fill-opacity="1"><g transform="translate(70.426106, 58.898217)"><g><path d="M 6.984375 -6.65625 L 6.984375 0 L 5.4375 0 L 2.515625 -3.546875 L 2.515625 0 L 0.671875 0 L 0.671875 -6.65625 L 2.21875 -6.65625 L 5.15625 -3.109375 L 5.15625 -6.65625 Z M 6.984375 -6.65625 "/></g></g></g><g fill="#000000" fill-opacity="1"><g transform="translate(81.104221, 59.298023)"><g><path d="M 3 0.140625 C 2.457031 0.140625 1.929688 0.0703125 1.421875 -0.0625 C 0.921875 -0.195312 0.515625 -0.375 0.203125 -0.59375 L 0.8125 -1.984375 C 1.113281 -1.785156 1.457031 -1.625 1.84375 -1.5 C 2.238281 -1.382812 2.628906 -1.328125 3.015625 -1.328125 C 3.734375 -1.328125 4.09375 -1.507812 4.09375 -1.875 C 4.09375 -2.0625 3.988281 -2.203125 3.78125 -2.296875 C 3.582031 -2.390625 3.253906 -2.484375 2.796875 -2.578125 C 2.296875 -2.691406 1.875 -2.804688 1.53125 -2.921875 C 1.195312 -3.046875 0.910156 -3.242188 0.671875 -3.515625 C 0.429688 -3.796875 0.3125 -4.164062 0.3125 -4.625 C 0.3125 -5.03125 0.421875 -5.394531 0.640625 -5.71875 C 0.867188 -6.050781 1.203125 -6.3125 1.640625 -6.5 C 2.078125 -6.6875 2.617188 -6.78125 3.265625 -6.78125 C 3.691406 -6.78125 4.117188 -6.726562 4.546875 -6.625 C 4.972656 -6.53125 5.347656 -6.390625 5.671875 -6.203125 L 5.09375 -4.8125 C 4.457031 -5.144531 3.84375 -5.3125 3.25 -5.3125 C 2.875 -5.3125 2.597656 -5.253906 2.421875 -5.140625 C 2.253906 -5.035156 2.171875 -4.894531 2.171875 -4.71875 C 2.171875 -4.539062 2.269531 -4.40625 2.46875 -4.3125 C 2.675781 -4.226562 3.003906 -4.140625 3.453125 -4.046875 C 3.960938 -3.941406 4.382812 -3.828125 4.71875 -3.703125 C 5.050781 -3.578125 5.335938 -3.378906 5.578125 -3.109375 C 5.828125 -2.835938 5.953125 -2.472656 5.953125 -2.015625 C 5.953125 -1.617188 5.835938 -1.257812 5.609375 -0.9375 C 5.390625 -0.613281 5.054688 -0.351562 4.609375 -0.15625 C 4.171875 0.0390625 3.632812 0.140625 3 0.140625 Z M 3 0.140625 "/></g></g></g><g fill="#000000" fill-opacity="1"><g transform="translate(87.249942, 59.298023)"><g><path d="M 4.234375 -2.390625 L 4.234375 0 L 2.34375 0 L 2.34375 -2.40625 L -0.1875 -6.65625 L 1.796875 -6.65625 L 3.375 -4.015625 L 4.953125 -6.65625 L 6.78125 -6.65625 Z M 4.234375 -2.390625 "/></g></g></g><g fill="#000000" fill-opacity="1"><g transform="translate(61.912051, 66.388288)"><g><path d="M 2.75 -0.796875 L 0.96875 -0.796875 L 0.625 0 L 0 0 L 1.5625 -3.546875 L 2.1875 -3.546875 L 3.734375 0 L 3.09375 0 Z M 2.53125 -1.328125 L 1.859375 -2.90625 L 1.1875 -1.328125 Z M 2.53125 -1.328125 "/></g></g></g><g fill="#000000" fill-opacity="1"><g transform="translate(65.651522, 66.388288)"><g><path d="M 2.03125 -3.5625 C 2.28125 -3.5625 2.523438 -3.507812 2.765625 -3.40625 C 3.003906 -3.3125 3.207031 -3.179688 3.375 -3.015625 L 3.03125 -2.578125 C 2.90625 -2.710938 2.753906 -2.820312 2.578125 -2.90625 C 2.398438 -2.988281 2.222656 -3.03125 2.046875 -3.03125 C 1.691406 -3.03125 1.390625 -2.90625 1.140625 -2.65625 C 0.898438 -2.414062 0.78125 -2.125 0.78125 -1.78125 C 0.78125 -1.425781 0.898438 -1.128906 1.140625 -0.890625 C 1.390625 -0.648438 1.691406 -0.53125 2.046875 -0.53125 C 2.410156 -0.53125 2.738281 -0.671875 3.03125 -0.953125 L 3.390625 -0.5625 C 3.203125 -0.375 2.988281 -0.226562 2.75 -0.125 C 2.507812 -0.0195312 2.265625 0.03125 2.015625 0.03125 C 1.492188 0.03125 1.054688 -0.140625 0.703125 -0.484375 C 0.347656 -0.835938 0.171875 -1.269531 0.171875 -1.78125 C 0.171875 -2.28125 0.347656 -2.703125 0.703125 -3.046875 C 1.066406 -3.390625 1.507812 -3.5625 2.03125 -3.5625 Z M 2.03125 -3.5625 "/></g></g></g><g fill="#000000" fill-opacity="1"><g transform="translate(69.183244, 66.388288)"><g><path d="M 2.75 -0.796875 L 0.96875 -0.796875 L 0.625 0 L 0 0 L 1.5625 -3.546875 L 2.1875 -3.546875 L 3.734375 0 L 3.09375 0 Z M 2.53125 -1.328125 L 1.859375 -2.90625 L 1.1875 -1.328125 Z M 2.53125 -1.328125 "/></g></g></g><g fill="#000000" fill-opacity="1"><g transform="translate(72.922716, 66.388288)"><g><path d="M 0.46875 -3.546875 L 1.921875 -3.546875 C 2.453125 -3.546875 2.890625 -3.378906 3.234375 -3.046875 C 3.578125 -2.710938 3.75 -2.285156 3.75 -1.765625 C 3.75 -1.253906 3.570312 -0.832031 3.21875 -0.5 C 2.875 -0.164062 2.4375 0 1.90625 0 L 0.46875 0 Z M 1.0625 -3 L 1.0625 -0.53125 L 1.9375 -0.53125 C 2.28125 -0.53125 2.566406 -0.644531 2.796875 -0.875 C 3.035156 -1.113281 3.15625 -1.410156 3.15625 -1.765625 C 3.15625 -2.117188 3.035156 -2.410156 2.796875 -2.640625 C 2.554688 -2.878906 2.257812 -3 1.90625 -3 Z M 1.0625 -3 "/></g></g></g><g fill="#000000" fill-opacity="1"><g transform="translate(76.849667, 66.388288)"><g><path d="M 3 -3 L 1.0625 -3 L 1.0625 -2.046875 L 2.796875 -2.046875 L 2.796875 -1.515625 L 1.0625 -1.515625 L 1.0625 -0.53125 L 3.0625 -0.53125 L 3.0625 0 L 0.46875 0 L 0.46875 -3.546875 L 3 -3.546875 Z M 3 -3 "/></g></g></g><g fill="#000000" fill-opacity="1"><g transform="translate(80.17364, 66.388288)"><g><path d="M 4.21875 0 L 3.65625 0 L 3.65625 -2.640625 L 2.53125 -0.375 L 2.140625 -0.375 L 1.03125 -2.640625 L 1.03125 0 L 0.46875 0 L 0.46875 -3.546875 L 1.171875 -3.546875 L 2.34375 -1.1875 L 3.515625 -3.546875 L 4.21875 -3.546875 Z M 4.21875 0 "/></g></g></g><g fill="#000000" fill-opacity="1"><g transform="translate(84.860644, 66.388288)"><g><path d="M 1.921875 -1.171875 L 1.921875 0 L 1.328125 0 L 1.328125 -1.15625 L 0 -3.546875 L 0.609375 -3.546875 L 1.625 -1.8125 L 2.609375 -3.546875 L 3.21875 -3.546875 Z M 1.921875 -1.171875 "/></g></g></g></svg>